<?xml version="1.0" encoding="UTF-8" ?>
<!DOCTYPE svg PUBLIC "-//W3C//DTD SVG 1.1//EN" "http://www.w3.org/Graphics/SVG/1.1/DTD/svg11.dtd">
<svg width="125pt" height="151pt" viewBox="0 0 125 151" version="1.1" xmlns="http://www.w3.org/2000/svg">
<path fill="#04aff1" opacity="1.00" d=" M 61.22 0.00 L 63.65 0.00 C 80.16 16.80 84.37 41.82 82.32 64.49 C 87.34 69.15 92.20 74.02 96.83 79.08 C 99.52 82.15 102.80 85.52 102.33 89.96 C 101.87 98.10 99.52 106.01 96.82 113.66 C 95.20 117.94 93.71 122.35 91.08 126.14 C 89.77 124.84 88.49 123.51 87.24 122.16 C 88.34 118.30 91.10 114.29 89.61 110.18 C 88.39 107.91 86.24 106.33 84.51 104.47 C 81.35 101.46 78.61 98.03 75.21 95.28 C 74.08 98.36 73.95 102.79 70.59 104.38 C 65.21 105.34 59.57 105.47 54.19 104.33 C 50.98 102.44 50.99 98.18 49.35 95.18 C 45.09 100.01 40.31 104.35 36.00 109.12 C 32.90 113.32 37.07 118.06 37.37 122.44 C 36.33 123.62 35.28 125.82 33.45 125.53 C 28.70 117.29 25.94 107.98 23.78 98.75 C 22.97 93.59 21.10 87.32 24.91 82.88 C 30.26 76.12 36.67 70.32 42.73 64.22 C 40.39 41.65 44.99 16.81 61.22 0.00 M 58.20 32.25 C 54.07 34.03 51.17 38.45 51.61 43.00 C 51.81 49.12 58.04 54.30 64.12 53.06 C 69.80 52.42 74.07 46.68 73.34 41.06 C 72.74 34.09 64.58 29.25 58.20 32.25 Z" />
<path fill="#04aff1" opacity="1.00" d=" M 5.07 68.92 C 10.62 53.10 23.11 40.00 38.43 33.31 C 37.96 35.56 38.05 37.98 37.15 40.12 C 26.82 45.69 18.02 54.29 12.90 64.93 C 5.83 79.00 5.29 96.20 11.51 110.66 C 16.89 123.82 27.68 134.58 40.71 140.19 C 53.93 145.90 69.42 146.17 82.78 140.76 C 97.39 135.11 109.24 122.83 114.45 108.07 C 119.47 94.61 118.70 79.15 112.63 66.15 C 107.51 54.83 98.25 45.74 87.41 39.83 C 87.16 37.67 86.81 35.52 86.51 33.36 C 100.97 39.58 112.85 51.61 118.82 66.19 C 125.57 82.27 124.82 101.31 116.81 116.80 C 109.32 131.87 95.26 143.51 79.01 147.96 C 63.89 152.48 47.05 150.39 33.26 142.79 C 20.65 135.94 10.63 124.48 5.54 111.06 C 0.37 97.67 0.23 82.43 5.07 68.92 Z" />
<path fill="#04aff1" opacity="1.00" d=" M 59.34 37.37 C 63.19 34.49 69.20 38.41 68.31 43.09 C 67.85 47.30 62.32 49.70 59.01 47.00 C 55.69 44.80 55.88 39.34 59.34 37.37 Z" />
</svg>
