<svg xmlns="http://www.w3.org/2000/svg" viewBox="0 0 688 598"><defs><style>.cls-1{fill:#62c7e7;stroke:#62c7e7;stroke-miterlimit:10;}.cls-2{fill:#fff;}</style></defs><title>Feature_IconDEPLOY</title><g id="IH_Icon_names" data-name="IH Icon names"><path id="HEX" class="cls-1" d="M676.13,277.1,529,22.32A43.78,43.78,0,0,0,491.1.41H196.9A43.78,43.78,0,0,0,159,22.32l-71,123L11.87,277.1a43.77,43.77,0,0,0,0,43.8L159,575.68a43.78,43.78,0,0,0,37.93,21.91H491.1A43.78,43.78,0,0,0,529,575.68l71-123L676.13,320.9A43.77,43.77,0,0,0,676.13,277.1Z"/><path class="cls-2" d="M260.56,265.24l-2.77,2.67c0-.57,0-1.14.09-1.68C258.77,265.88,259.67,265.55,260.56,265.24Z"/><path class="cls-2" d="M421.68,307.89m-69.07,0,0-69.06"/><path class="cls-2" d="M279.42,432.24l-1.27,1.24c-.27.27-.54.52-.81.76s-.57.53-.86.78-.67.61-1,.89-.77.69-1.18,1-.73.61-1.1.9-.78.63-1.18.94c-1.07.83-2.17,1.63-3.27,2.4-.37.26-.76.52-1.14.77l-.94.62c-.41.27-.81.53-1.22.77l-1.22.74-1.23.71s0,0-.05,0l-1.44.8c-1,.53-2,1-3,1.53-.51.25-1,.48-1.52.71-.69.32-1.37.61-2.06.9s-1.36.58-2.06.85l-2.1.78-2,.68-.38.12c-.54.18-1.09.35-1.64.5s-1,.29-1.49.43-1.07.29-1.62.42l-1.54.37-2,.43c-1.36.27-2.73.51-4.11.71-.55.08-1.08.15-1.65.21a1.63,1.63,0,0,1-.33.05c-.61.07-1.23.14-1.84.19s-1,.09-1.55.13c-1.28.11-2.56.16-3.84.2-.61,0-1.23,0-1.85,0-.79,0-1.57,0-2.37,0a77,77,0,0,1-28.46-6.3h0a77.24,77.24,0,0,1,64.6-107.69,34.07,34.07,0,0,0-2.55,2.28,30.66,30.66,0,0,0,43.36,43.37,30.15,30.15,0,0,0,2.28-2.55A76.79,76.79,0,0,1,279.42,432.24Z"/><path class="cls-2" d="M488.61,154.79c-15-15-42.26-15.33-76.31-3.72-48.29,16.45-110.13,57-169.53,114.05-.91.88-1.84,1.77-2.76,2.67,0-.57,0-1.14.09-1.68A105.89,105.89,0,0,0,187.5,310a76.5,76.5,0,0,1,18.85-7.35h0a77.4,77.4,0,0,1,36.9,0,128.87,128.87,0,0,0,15.57,38.06l.06.1a130.38,130.38,0,0,0,42.9,42.9l.1.06A128.47,128.47,0,0,0,340,399.33a77.33,77.33,0,0,1-.5,38.9,76.5,76.5,0,0,1-6.85,16.87,105.89,105.89,0,0,0,43.89-52.6h0l0,0c57.69-59.63,98.77-121.91,115.57-170.59C504,197.48,503.7,169.87,488.61,154.79Zm-84.72,153a48.83,48.83,0,1,1,0-69.06A48.56,48.56,0,0,1,403.89,307.77Z"/></g></svg>