<svg xmlns="http://www.w3.org/2000/svg" viewBox="0 0 688 598"><defs><style>.cls-1{fill:#82b7ee;}.cls-2{fill:#fff;}</style></defs><title>Feature_IconCREATE</title><g id="IH_Icon_names" data-name="IH Icon names"><path id="HEX" class="cls-1" d="M676.13,277.1,529,22.32A43.78,43.78,0,0,0,491.1.41H196.9A43.78,43.78,0,0,0,159,22.32l-71,123L11.87,277.1a43.77,43.77,0,0,0,0,43.8L159,575.68a43.78,43.78,0,0,0,37.93,21.91H491.1A43.78,43.78,0,0,0,529,575.68l71-123L676.13,320.9A43.77,43.77,0,0,0,676.13,277.1Z"/><path class="cls-2" d="M430.55,248.46l-81.79,81.79-40.6,2.6,2.59-40.6,81.8-81.8-8.95-8.95H227.45a8,8,0,0,0-8,8V417.54a8,8,0,0,0,8,8H435.51a8,8,0,0,0,8-8V261.4Z"/><polygon class="cls-2" points="430.52 172.48 393.11 209.9 431.11 247.9 468.53 210.48 459.34 181.67 430.52 172.48"/></g></svg>