<svg xmlns="http://www.w3.org/2000/svg" viewBox="0 0 688 598"><defs><style>.cls-1{fill:#eb7bb1;}.cls-2,.cls-3{fill:#fff;}.cls-3{stroke:#eb7bb1;stroke-linecap:square;stroke-miterlimit:10;stroke-width:12.83px;}</style></defs><title>Feature_IconMONITOR</title><g id="IH_Icon_names" data-name="IH Icon names"><path id="HEX" class="cls-1" d="M676.13,277.1,529,22.32A43.78,43.78,0,0,0,491.1.41H196.9A43.78,43.78,0,0,0,159,22.32l-71,123L11.87,277.1a43.77,43.77,0,0,0,0,43.8L159,575.68a43.78,43.78,0,0,0,37.93,21.91H491.1A43.78,43.78,0,0,0,529,575.68l71-123L676.13,320.9A43.77,43.77,0,0,0,676.13,277.1Z"/><path class="cls-2" d="M260.56,265.24l-2.77,2.67c0-.57,0-1.14.09-1.68C258.77,265.88,259.67,265.55,260.56,265.24Z"/><path class="cls-2" d="M421.68,307.89m-69.07,0,0-69.06"/><path class="cls-2" d="M472.43,208.12h0a83.23,83.23,0,0,0-117.7,0L344,218.85l-10.73-10.73a83.23,83.23,0,0,0-117.7,0h0a83.23,83.23,0,0,0,0,117.7l10.73,10.73L344,454.25l117.7-117.7,10.73-10.73A83.23,83.23,0,0,0,472.43,208.12Z"/><polyline class="cls-3" points="191.19 270.24 250.58 270.24 250.58 334.59 273.07 334.59 273.07 270.24 323.65 270.24 323.65 334.59 361.09 334.59 361.09 270.24 398.42 270.24 398.42 270.24 424.83 270.24 424.83 270.24 496.74 270.24"/></g></svg>