<?xml version="1.0" encoding="UTF-8" ?>
<!DOCTYPE svg PUBLIC "-//W3C//DTD SVG 1.1//EN" "http://www.w3.org/Graphics/SVG/1.1/DTD/svg11.dtd">
<svg width="200pt" height="200pt" viewBox="0 0 200 200" version="1.1" xmlns="http://www.w3.org/2000/svg">
<g id="#000000ff">
<path fill="#ffffff" opacity="1.00" d=" M 5.19 6.11 C 5.25 4.22 7.19 3.11 8.92 3.24 C 34.81 1.56 62.22 4.48 84.76 18.26 C 95.02 24.37 103.23 33.26 110.08 42.91 C 126.34 49.83 142.09 58.80 154.37 71.72 C 160.78 78.52 166.47 86.25 169.73 95.07 C 170.82 97.01 169.39 99.70 167.15 99.72 C 157.83 100.52 148.51 101.20 139.19 101.98 C 141.41 107.94 143.53 113.94 145.32 120.04 C 146.02 121.51 145.13 123.05 144.02 124.00 C 138.16 129.82 132.30 135.64 126.46 141.47 C 125.56 142.34 124.34 143.41 122.98 142.83 C 116.60 141.08 110.35 138.83 104.13 136.56 C 103.39 145.74 102.66 154.94 101.90 164.12 C 102.06 166.12 100.05 168.05 98.04 167.40 C 92.47 165.65 87.41 162.58 82.65 159.25 C 65.52 146.90 53.61 128.61 45.50 109.36 C 44.70 106.72 41.89 105.73 39.94 104.08 C 26.05 93.97 16.42 78.92 11.07 62.74 C 5.30 44.52 3.86 25.12 5.19 6.11 M 11.22 9.36 C 10.52 24.12 11.27 39.11 15.02 53.46 C 28.61 40.02 42.14 26.53 55.71 13.07 C 41.26 9.22 26.11 8.57 11.22 9.36 M 62.53 15.00 C 47.44 30.24 32.12 45.26 16.93 60.41 C 21.24 73.80 28.66 86.38 39.38 95.63 C 50.97 105.49 64.81 112.13 78.43 118.68 C 92.66 125.67 107.46 131.45 122.55 136.33 C 128.16 131.23 133.29 125.61 138.83 120.43 C 134.95 107.27 129.77 94.51 123.95 82.09 C 117.55 68.86 111.21 55.47 102.61 43.48 C 93.05 29.73 78.49 19.83 62.53 15.00 M 115.49 52.20 C 123.86 66.09 130.33 81.18 137.05 95.81 C 145.54 95.26 154.01 94.49 162.50 93.83 C 152.95 74.46 134.54 61.26 115.49 52.20 M 53.93 113.12 C 63.14 132.16 76.49 150.51 95.96 159.96 C 96.67 151.38 97.36 142.80 98.05 134.22 C 82.96 128.05 68.16 121.10 53.93 113.12 Z" />
<path fill="#ffffff" opacity="1.00" d=" M 61.48 48.62 C 69.88 45.50 80.09 50.04 83.36 58.38 C 86.41 65.43 83.98 74.30 77.76 78.82 C 71.28 83.88 61.27 83.38 55.34 77.68 C 50.06 72.94 48.31 64.81 51.13 58.30 C 53.00 53.80 56.88 50.21 61.48 48.62 M 63.41 54.58 C 59.79 55.86 56.94 59.12 56.25 62.91 C 54.87 69.03 59.72 75.43 65.90 76.00 C 72.62 77.04 79.22 70.81 78.37 64.01 C 77.98 56.96 69.94 51.95 63.41 54.58 Z" />
<path fill="#ffffff" opacity="1.00" d=" M 163.09 130.09 C 164.40 129.40 166.07 129.86 166.94 131.03 C 176.07 141.26 185.17 151.52 194.28 161.78 C 195.86 163.12 195.63 165.91 193.75 166.87 C 192.22 167.85 190.32 167.00 189.36 165.66 C 180.44 155.60 171.49 145.57 162.59 135.51 C 160.78 134.12 160.95 131.06 163.09 130.09 Z" />
<path fill="#ffffff" opacity="1.00" d=" M 146.16 145.05 C 147.51 144.30 149.19 144.89 150.08 146.05 C 164.16 160.59 178.22 175.16 192.28 189.72 C 195.94 192.47 190.55 197.79 187.85 194.12 C 173.75 179.56 159.68 164.98 145.61 150.39 C 143.80 149.03 144.06 145.97 146.16 145.05 Z" />
<path fill="#ffffff" opacity="1.00" d=" M 130.31 160.54 C 131.63 159.21 133.98 159.49 135.01 161.02 C 144.14 171.25 153.24 181.51 162.34 191.77 C 163.90 193.14 163.58 195.90 161.70 196.82 C 160.19 197.75 158.36 196.94 157.41 195.63 C 148.47 185.58 139.53 175.52 130.60 165.46 C 129.14 164.24 128.86 161.87 130.31 160.54 Z" />
</g>
</svg>
