<?xml version="1.0" encoding="UTF-8" ?>
<!DOCTYPE svg PUBLIC "-//W3C//DTD SVG 1.1//EN" "http://www.w3.org/Graphics/SVG/1.1/DTD/svg11.dtd">
<svg width="601pt" height="415pt" viewBox="0 0 601 415" version="1.1" xmlns="http://www.w3.org/2000/svg">
<g id="#03aff2ff">
<path fill="#03aff2" opacity="1.00" d=" M 230.88 105.13 C 250.93 101.96 272.15 104.77 290.08 114.52 C 302.55 120.81 313.00 130.50 321.51 141.49 C 337.04 138.98 353.46 139.07 368.30 144.78 C 392.10 152.75 412.65 172.17 419.19 196.73 C 446.51 195.34 474.76 210.64 486.09 235.95 C 491.95 247.83 492.69 261.66 490.28 274.53 C 486.22 292.12 474.19 307.43 458.50 316.19 C 447.46 322.49 434.74 325.97 422.00 325.74 C 336.67 325.73 251.34 325.74 166.01 325.74 C 143.97 326.24 121.73 316.09 108.36 298.44 C 95.97 282.53 91.83 260.14 99.11 241.15 C 107.30 216.90 131.15 199.94 156.20 197.22 C 155.84 186.35 156.31 175.24 160.14 164.94 C 169.88 133.72 198.79 110.11 230.88 105.13 M 242.34 238.91 C 250.17 239.00 258.00 238.88 265.83 239.05 C 265.79 257.42 265.79 275.80 265.82 294.17 C 281.66 294.18 297.50 294.14 313.34 294.20 C 313.31 275.83 313.35 257.46 313.29 239.10 C 321.15 238.78 329.01 239.08 336.87 238.90 C 321.28 220.19 305.25 201.82 289.85 182.97 C 273.65 201.29 258.20 220.29 242.34 238.91 Z" />
</g>
</svg>
